# xmcd CD database file
# Copyright (C) 1993-1998 Ti Kan
#
# Track frame offsets:
#    182
#    15105
#    34932
#    49732
#    66887
#    83437
#    104407
#    119827
#    136645
#    149527
#    164740
#    176995
#    191077
#    203470
#    221210
#    232847
#    243760
#    260935
#    275885
#    292797
#
# Disc length: 4144 seconds
#
# Revision: 2
# Processed by: cddbd v1.4b41PL1 Copyright (c) Steve Scherf et al.
# Submitted via: MyCDplayer 2.4.5  (wjohn@am-woljo.com)
#
DISCID=2d102e14
DTITLE=Ray Stevens - 
DTITLE=20 Comedy Hits
DYEAR=1900
DGENRE=
TTITLE0=The Streak
TTITLE1=Shriner's Convention
TTITLE2=Gitarzan
TTITLE3=Ahab, the Arab
TTITLE4=Bridget the Midget (The Queen of the Blues)
TTITLE5=Super Cop
TTITLE6=The All-American Two Week Summer Family Vacat
TTITLE7=The Ballad of Jake McClusky
TTITLE8=The Motel Song
TTITLE9=Teenage Mutant Kung Fu Chickens
TTITLE10=Tabloid News
TTITLE11=Back in the Doghouse Again
TTITLE12=A Little Blue-Haired Lady
TTITLE13=Sittin' Up With the Dead
TTITLE14=Jack Daniels, You Lied to Me Again
TTITLE15=Help Me Make it Through the Night
TTITLE16=Used Cars
TTITLE17=Barbeque
TTITLE18=Where Do My Socks Go?
TTITLE19=This Ain't Exactly What I Had in Mind
EXTD=
EXTT0=
EXTT1=
EXTT2=
EXTT3=
EXTT4=
EXTT5=
EXTT6=
EXTT7=
EXTT8=
EXTT9=
EXTT10=
EXTT11=
EXTT12=
EXTT13=
EXTT14=
EXTT15=
EXTT16=
EXTT17=
EXTT18=
EXTT19=
PLAYORDER=
